<?xml version="1.0" encoding="UTF-8" standalone="no"?>
<svg
   xmlns:dc="http://purl.org/dc/elements/1.1/"
   xmlns:cc="http://creativecommons.org/ns#"
   xmlns:rdf="http://www.w3.org/1999/02/22-rdf-syntax-ns#"
   xmlns:svg="http://www.w3.org/2000/svg"
   xmlns="http://www.w3.org/2000/svg"
   viewBox="0 0 75.587196 75.587196"
   height="75.587196"
   width="75.587196"
   xml:space="preserve"
   id="svg2"
   version="1.1"><metadata
     id="metadata8"><rdf:RDF><cc:Work
         rdf:about=""><dc:format>image/svg+xml</dc:format><dc:type
           rdf:resource="http://purl.org/dc/dcmitype/StillImage" /></cc:Work></rdf:RDF></metadata><defs
     id="defs6"><clipPath
       id="clipPath18"
       clipPathUnits="userSpaceOnUse"><path
         id="path16"
         d="M 1.565,7.625 V 46.917 H 54.9 V 7.624 Z" /></clipPath><linearGradient
       id="linearGradient38"
       spreadMethod="pad"
       gradientTransform="matrix(1.53e-5,-39.294968,-1.213501,1.53e-5,28.232422,46.898437)"
       gradientUnits="userSpaceOnUse"
       y2="0"
       x2="1"
       y1="0"
       x1="0"><stop
         id="stop24"
         offset="0"
         style="stop-opacity:1;stop-color:#2e304e" /><stop
         id="stop26"
         offset="0.351517"
         style="stop-opacity:1;stop-color:#2e304e" /><stop
         id="stop28"
         offset="0.53720317"
         style="stop-opacity:1;stop-color:#416aab" /><stop
         id="stop30"
         offset="0.551514"
         style="stop-opacity:1;stop-color:#416aab" /><stop
         id="stop32"
         offset="0.70618267"
         style="stop-opacity:1;stop-color:#416aab" /><stop
         id="stop34"
         offset="0.84848"
         style="stop-opacity:1;stop-color:#31673c" /><stop
         id="stop36"
         offset="1"
         style="stop-opacity:1;stop-color:#31673c" /></linearGradient><clipPath
       id="clipPath48"
       clipPathUnits="userSpaceOnUse"><path
         id="path46"
         d="M 0,56.69 H 56.69 V 0 H 0 Z" /></clipPath></defs><g
     transform="matrix(1.3333333,0,0,-1.3333333,0,75.5872)"
     id="g10"><g
       id="g12"><g
         clip-path="url(#clipPath18)"
         id="g14"><g
           id="g20"><g
             id="g22"><path
               id="path40"
               style="fill:url(#linearGradient38);stroke:none"
               d="M 1.565,7.625 V 46.917 H 54.9 V 7.624 Z" /></g></g></g></g><g
       id="g42"><g
         clip-path="url(#clipPath48)"
         id="g44"><g
           transform="translate(17.936,28.1455)"
           id="g50"><path
             id="path52"
             style="fill:#ffffff;fill-opacity:1;fill-rule:nonzero;stroke:none"
             d="M 0,0 H 11.437 C 11.335,2.259 10.759,4.588 9.012,6.084 6.931,7.866 3.286,8.527 0.029,8.527 c -3.39,0 -7.139,-0.725 -9.231,-2.637 -1.804,-1.647 -2.194,-4.297 -2.194,-6.678 0,-2.494 0.763,-5.395 2.72,-7.066 2.081,-1.778 5.453,-2.25 8.705,-2.25 3.159,0 6.581,0.533 8.65,2.221 2.063,1.686 2.776,4.526 2.776,7.095 v 0.012 L 0,-0.776 Z" /></g><g
           transform="translate(30.1406,27.3691)"
           id="g54"><path
             id="path56"
             style="fill:#ffffff;fill-opacity:1;fill-rule:nonzero;stroke:none"
             d="m 0,0 v -8.911 h 15.91 v 0.012 c 2.328,0.116 4.18,2.034 4.18,4.389 0,2.356 -1.852,4.397 -4.18,4.514 V 0 Z" /></g><g
           transform="translate(49.9395,32.2305)"
           id="g58"><path
             id="path60"
             style="fill:#ffffff;fill-opacity:1;fill-rule:nonzero;stroke:none"
             d="m 0,0 c 0,2.27 -1.801,4.069 -4.07,4.069 -0.157,0 -0.35,0.03 -0.502,0.013 H -19.799 V -4.085 H -3.758 C -1.654,-3.904 0,-2.149 0,0" /></g></g></g></g></svg>