<svg width="46" height="46" viewBox="0 0 46 46" xmlns="http://www.w3.org/2000/svg">
    <path d="M.874 28.44H45.1c.137 0 .267-.062.352-.17.087-.107.12-.246.09-.38-.178-.802-.462-1.563-.846-2.27l-5.6-10.286c-.077-.145-.23-.236-.395-.236h-5.323c-.226 0-.417.168-.447.39-.07.522-.515.91-1.034.91H14.08c-.52 0-.963-.39-1.033-.91-.03-.222-.22-.39-.447-.39H7.274c-.165 0-.317.092-.396.236L1.28 25.62c-.383.704-.668 1.468-.846 2.27-.03.132.004.272.09.38.083.108.212.17.35.17zm44.86 1.784c-.012-.242-.21-.43-.45-.43H.69c-.24 0-.438.188-.45.43-.007.145-.014.29-.014.44v14c0 .25.202.452.452.452h5.147c.25 0 .453-.2.453-.453v-4.695h33.42v4.695c0 .252.202.453.452.453h5.147c.25 0 .452-.2.452-.453v-14c0-.148-.007-.295-.014-.44zm-38.46-16.49h5.6c.196 0 .37-.126.43-.315l.833-2.68c.137-.44.54-.74 1-.74H30.84c.46 0 .86.297 1 .74l.83 2.68c.06.186.235.313.433.313h5.6c.25 0 .45-.2.45-.45V4.52c0-2.188-1.78-3.97-3.97-3.97h-24.39C8.6.55 6.82 2.333 6.82 4.52v8.764c0 .25.2.45.45.45z"/>
</svg>
