<svg width="107" height="107" viewBox="0 0 107 107" xmlns="http://www.w3.org/2000/svg">
    <path d="M53.5 106.17c29.27 0 53-23.728 53-53s-23.73-53-53-53-53 23.73-53 53 23.73 53 53 53zm0-96.923c23.793 0 43.076 19.667 43.076 43.925 0 24.26-19.283 43.925-43.076 43.925-23.795 0-43.078-19.666-43.078-43.925 0-24.26 19.283-43.925 43.078-43.925z"/>
    <path d="M47.96 53.172c0 .91.215 1.767.59 2.53-1.112 2.117-1.695 4.013-1.695 4.013s1.854-.545 3.953-1.606c.797.45 1.714.71 2.692.71 3.06 0 5.54-2.53 5.54-5.65 0-.65-.112-1.27-.31-1.85 5.892-6.37 13.91-15.91 13.91-15.91s-10.216 7.07-16.97 12.55c-.667-.29-1.4-.45-2.17-.45-3.062-.01-5.54 2.52-5.54 5.64v.02z"/>
    <path d="M24.737 79.765c1.013 1.097 2.1 2.148 3.235 3.124.627.54 1.576.47 2.115-.16.52-.61.47-1.5-.097-2.05l4.878-5.43-1.302-1.17-4.866 5.41c-.605-.57-1.2-1.16-1.76-1.77h-.002l-.043-.05 2.23-1.99-.74-.83-2.23 1.99c-.495-.58-.965-1.16-1.42-1.76l2.4-1.78-.66-.89-2.403 1.77c-.44-.62-.866-1.24-1.265-1.88l2.563-1.55-.574-.95-2.558 1.54c-.382-.66-.75-1.32-1.088-1.99l2.702-1.31-.483-1-2.7 1.31c-.28-.59-.53-1.18-.78-1.78l6.83-2.55-.61-1.64-6.84 2.55c-.27-.79-.53-1.59-.74-2.39l-.02-.07 2.92-.73-.27-1.08-2.91.73c-.17-.74-.33-1.48-.45-2.22l2.96-.46-.17-1.1-2.96.45c-.1-.75-.18-1.5-.24-2.26l2.98-.17-.06-1.11-2.98.17c-.03-.75-.04-1.51-.02-2.27l2.97.1.03-1.11-2.99-.11c.03-.56.06-1.12.12-1.68l.03-.25 7.22.92.22-1.73-7.23-.92c.12-.83.28-1.65.46-2.45l.01-.07 2.9.7.26-1.08-2.91-.7c.19-.73.4-1.45.63-2.17l2.82.963.36-1.05-2.84-.97c.25-.71.54-1.41.84-2.1L22.98 40l.457-1.01-2.73-1.23c.32-.686.67-1.356 1.035-2.02l2.6 1.48.55-.964-2.6-1.48c.33-.56.67-1.11 1.03-1.65l5.98 4.19 1.01-1.437-5.97-4.19c.49-.67 1.02-1.32 1.56-1.95.02-.02.03-.03.04-.05l2.24 1.97.74-.84-2.24-1.98c.51-.55 1.04-1.09 1.58-1.62l2.05 2.17.81-.76-2.05-2.17c.46-.42.93-.83 1.415-1.23.096-.08.2-.16.3-.24l1.83 2.35.87-.68-1.83-2.35c.6-.46 1.217-.9 1.84-1.31l1.61 2.51.94-.6-1.61-2.51c.55-.34 1.11-.67 1.68-.98l3.358 6.47 1.55-.8-3.354-6.47c.75-.36 1.51-.7 2.28-1.01.02-.01.04-.01.07-.02l1.08 2.79 1.04-.4-1.07-2.79c.71-.26 1.43-.49 2.15-.71l.81 2.88 1.07-.3-.81-2.88c.73-.19 1.47-.36 2.21-.51l.54 2.95 1.09-.2-.53-2.94c.75-.12 1.49-.23 2.25-.3l.26 2.98 1.1-.09-.25-2.97c.64-.05 1.29-.08 1.94-.09l-.06 7.28 1.75.01.06-7.28c.78.03 1.57.07 2.36.15.04.01.08.01.12.02l.07.01-.35 2.96 1.11.13.346-2.96c.75.1 1.497.21 2.23.355l-.62 2.926 1.09.23.617-2.91c.736.17 1.47.35 2.19.567l-.89 2.85 1.06.33.89-2.85c.72.24 1.43.49 2.13.77l-1.16 2.76 1.02.43 1.15-2.75c.594.26 1.18.53 1.76.82l-3.43 6.43 1.544.82 3.43-6.43c.73.41 1.44.84 2.14 1.3l.057.04-1.69 2.47.92.63 1.69-2.47c.62.43 1.22.88 1.81 1.36l-1.91 2.3.85.71 1.91-2.29c.57.49 1.13 1 1.67 1.52l-2.11 2.11.785.783 2.11-2.103c.52.54 1.03 1.1 1.52 1.67l-2.3 1.9.704.85 2.3-1.9c.404.5.794 1.02 1.17 1.54l-6.017 4.1.98 1.45 6.01-4.1c.45.7.88 1.416 1.28 2.14l.033.06-2.64 1.4.52.98 2.64-1.4c.344.67.67 1.35.97 2.04l-2.76 1.15.43 1.03 2.76-1.15c.28.7.54 1.41.77 2.13l-2.85.89.33 1.06 2.86-.89c.21.726.4 1.46.563 2.19l-2.92.62.23 1.085 2.93-.62c.13.63.23 1.27.32 1.92l-7.24.82.2 1.74 7.24-.82c.07.83.117 1.66.13 2.49v.06l-2.98.01v1.11l2.98-.01c-.01.75-.04 1.5-.1 2.26l-2.962-.26-.1 1.1 2.97.27c-.08.754-.18 1.5-.31 2.24l-2.93-.54-.2 1.09 2.94.54c-.14.74-.32 1.475-.51 2.2l-2.87-.81-.3 1.07 2.88.81c-.19.62-.382 1.24-.6 1.85l-6.81-2.63-.63 1.63 6.81 2.625c-.32.77-.67 1.53-1.043 2.27l-.03.06L83.25 68l-.51.984 2.66 1.38c-.36.664-.743 1.313-1.143 1.954l-2.51-1.63-.607.93 2.52 1.622c-.42.62-.86 1.23-1.32 1.84l-2.35-1.85-.69.87 2.35 1.85c-.477.58-.97 1.15-1.48 1.71L78 75.6l-.77.8 2.165 2.05c-.452.46-.92.91-1.396 1.35l-4.79-5.48-1.32 1.15 4.79 5.48c-.11.09-.22.19-.33.28-.64.526-.74 1.47-.22 2.11.3.37.73.56 1.17.56.33 0 .67-.11.94-.34 8.2-6.67 13.27-16.13 14.29-26.65 1-10.41-2.12-20.6-8.77-28.67S67.7 15.17 57.29 14.17s-20.6 2.11-28.67 8.77c-8.06 6.655-13.06 16.055-14.06 26.47-1.04 10.79 2.3 21.24 9.41 29.43.27.315.54.62.82.92l-.062.005z"/>
    <path d="M40.146 66.042c-.596 0-1.035.737-1.035 2.125 0 1.325.41 2.078 1.04 2.078.7 0 1.04-.823 1.04-2.125 0-1.254-.31-2.078-1.03-2.078h-.01zm20.12-.008c-.58 0-.995.518-.995 1.247 0 .64.39 1.09.98 1.09.47 0 .83-.22 1.01-.53.04-.07.06-.14.06-.26 0-.87-.32-1.53-1.05-1.53v-.01zm-3.964.98l-1.247 1.734v.016h1.67v-1.702c0-.267.01-.533.024-.8h-.03c-.16.298-.29.517-.43.753h.01z"/>
    <path d="M65.73 63.355H39.06c-1.657 0-3 1.343-3 3v3.437c0 1.657 1.343 3 3 3h26.674c1.657 0 3-1.343 3-3v-3.437c0-1.657-1.343-3-3-3h-.004z"/>
</svg>
