<svg width="297" height="410" viewBox="0 0 297 410" xmlns="http://www.w3.org/2000/svg">
    <path d="M132.227 299.125c-2.128-2.023-5.903-3.33-9.62-3.33-1.908 0-3.706.357-5.06 1.004-3.14 1.5-6.513 2.26-10.03 2.26-8.792 0-16.812-4.72-20.93-12.32-2.004-3.7-7.547-6.82-12.104-6.82-.396 0-.78.02-1.142.07-.99.13-2.01.2-3.02.2-7.55 0-14.55-3.75-18.95-9.55L13.18 375.55l63.35-29.54 29.54 63.34L144 305.12c-4.426-.837-8.5-2.895-11.77-6.005l-.003.01zm94.46-18.935c-1.006 0-2.022-.066-3.02-.2-.362-.046-.746-.07-1.144-.07-4.556 0-10.098 3.124-12.102 6.82-4.11 7.6-12.13 12.32-20.92 12.32-3.52 0-6.89-.76-10.03-2.26-1.35-.647-3.15-1.005-5.06-1.005-3.71 0-7.49 1.307-9.62 3.33-3.27 3.11-7.34 5.168-11.77 6.002l37.94 104.233 29.54-63.343 63.35 29.537-38.18-104.912c-4.4 5.798-11.396 9.548-18.954 9.548h-.02z"/>
    <path d="M292.84 138.217c-5.557-5.847-7.257-16.585-3.778-23.862 3.478-7.277.52-16.377-6.57-20.22s-12.027-13.53-10.968-21.527c1.06-7.996-4.565-15.736-12.497-17.2-7.932-1.464-15.62-9.15-17.084-17.083-1.465-7.932-9.204-13.556-17.2-12.497-7.995 1.06-17.683-3.877-21.526-10.968-3.843-7.09-12.94-10.047-20.22-6.57-7.276 3.478-18.015 1.777-23.86-3.78-5.848-5.556-15.415-5.556-21.263 0-5.847 5.557-16.584 7.258-23.86 3.78s-16.378-.52-20.222 6.57c-3.844 7.09-13.53 12.027-21.526 10.968-7.995-1.06-15.735 4.564-17.2 12.497-1.463 7.932-9.15 15.62-17.083 17.083-7.932 1.464-13.556 9.204-12.497 17.2 1.06 7.996-3.876 17.684-10.968 21.527-7.092 3.843-10.048 12.943-6.57 20.22 3.48 7.277 1.778 18.015-3.778 23.862-5.558 5.848-5.558 15.414 0 21.26 5.557 5.848 7.257 16.586 3.78 23.863-3.48 7.276-.523 16.375 6.568 20.22 7.092 3.842 12.027 13.53 10.968 21.526-1.06 7.996 4.565 15.736 12.497 17.2 7.933 1.464 15.62 9.15 17.084 17.083 1.464 7.93 9.204 13.55 17.2 12.49 7.995-1.06 17.682 3.88 21.525 10.97 3.844 7.09 12.943 10.05 20.22 6.57 7.277-3.48 18.016-1.78 23.862 3.78 5.848 5.55 15.415 5.55 21.262 0 5.847-5.55 16.585-7.26 23.86-3.78 7.28 3.48 16.378.52 20.22-6.57 3.845-7.09 13.532-12.03 21.527-10.97 7.996 1.06 15.735-4.57 17.2-12.5 1.464-7.94 9.152-15.62 17.084-17.09 7.932-1.47 13.556-9.21 12.497-17.2-1.06-8 3.876-17.69 10.968-21.53 7.092-3.85 10.048-12.95 6.57-20.22-3.48-7.28-1.778-18.02 3.78-23.86 5.554-5.85 5.554-15.42 0-21.26l-.002.01zM148.505 263.81c-63.392 0-114.965-51.57-114.965-114.962 0-63.39 51.572-114.964 114.964-114.964 63.39 0 114.964 51.573 114.964 114.964 0 63.393-51.573 114.963-114.964 114.963z"/>
    <path d="M148.504 43.956c-57.93 0-104.893 46.96-104.893 104.892 0 57.932 46.97 104.892 104.9 104.892 57.93 0 104.9-46.962 104.9-104.892 0-57.93-46.97-104.892-104.9-104.892zm65.31 68.7l-81.08 102.434c-.007.004-.012.01-.012.015-2.865 3.602-7.76 3.804-10.91.455-.012-.01-.022-.026-.04-.044l-46.38-50.043c-3.15-3.4-3.045-8.865.23-12.14l14.33-14.33c3.275-3.282 8.64-3.282 11.916 0l20.617 20.61 5.96 5.96 5.046-6.73.02-.01 51.07-68.104.02-.02c2.78-3.7 8.09-4.45 11.79-1.68l15.94 11.95c3.71 2.78 4.388 8.02 1.51 11.66l-.015.01z"/>
</svg>
