<svg width="50" height="50" viewBox="0 0 50 50" xmlns="http://www.w3.org/2000/svg">
    <path d="M39.422 22.903L15.527 9.533c-1.033-.58-2.32-.174-2.875.902-.557 1.08-.17 2.42.865 2.997l23.895 13.37c1.033.574 2.32.17 2.877-.907.55-1.076.16-2.417-.87-2.995v.003zM1.998 37.716l-1.68-1.052 2.024-3.5 1.68 1.054-2.024 3.498zm10.116-17.494l-1.68-1.054 2.024-3.5 1.68 1.057-2.024 3.497zm-4.752 4.226l1.68 1.054-2.024 3.5-1.68-1.054 2.024-3.5zM6.135 41.005l-1.68-1.056 1.52-2.62 1.68 1.053-1.52 2.62zM16.588 18.99l1.68 1.054-1.517 2.625-1.68-1.057 1.52-2.625zm-1.855 7.145l-1.516 2.625-1.68-1.054 1.515-2.625 1.68 1.057zm-3.543 6.117l-1.518 2.625-1.68-1.054 1.517-2.625 1.68 1.054zm3.2 4.125l-1.68-1.052 3.032-5.25 1.682 1.052-3.034 5.25zM20.8 21.34l1.68 1.054-3.035 5.25-1.68-1.054 3.035-5.25zM9.37 45.104l-1.68-1.052 3.035-5.25 1.68 1.054-3.035 5.248zM20.468 32.65l1.68 1.052-2.024 3.5-1.68-1.054 2.024-3.498zm-5.362 13.267l-1.68-1.052 2.024-3.5 1.68 1.054-2.024 3.495zM25.22 28.422l-1.68-1.054 2.025-3.5 1.68 1.054-2.025 3.5zm-4.95 19.253l-1.683-1.056 1.518-2.626 1.682 1.056-1.517 2.624zm3.32-9.77l1.68 1.053-1.516 2.625-1.68-1.055 1.516-2.624zm5.226-5.107l-1.518 2.625-1.68-1.055 1.518-2.625 1.68 1.055zm2.06-3.496l-1.68-1.055 1.517-2.625 1.68 1.055-1.517 2.625zm3.21 4.128L32.4 32.39l2.494-4.394 1.688 1.042-2.496 4.392zm-4.492 7.938l-1.686-1.042 2.5-4.39 1.686 1.042-2.5 4.39zm-4.5 7.906l-1.686-1.042 2.5-4.39 1.686 1.042-2.5 4.39z"/>
    <path d="M41.203.41c-2.902 0-5.445 1.605-6.875 4.002-.055-.03-.104-.066-.158-.097C27.766.73 19.984 2.648 16.004 8.502l1.775.996c3.842-5.404 11.13-7.146 17.16-3.784-5.514-1.172-11.215.74-14.883 5.06l20.787 11.63c2.12-5.705.415-12.22-4.1-16.237.892-1.604 2.548-2.694 4.452-2.694 2.84 0 5.15 2.406 5.15 5.367v33.125h2.94V8.84C49.29 4.192 45.662.41 41.2.41h.003z"/>
</svg>
