<svg width="400" height="280" viewBox="0 0 400 280" xmlns="http://www.w3.org/2000/svg">
    <path d="M272.275 68.953c4.7 7.376 8.998 15.057 12.912 22.956.728.6 1.172.84 1.277.65 1.35-2.45 3.994-1.86 3.507-8.34-.48-6.48-14.68-41.76-16.04-45.16-1.36-3.396-23.28-20.035-27.67-20.29-4.38-.26-7.05.976-7.05.976l-7.56 4.01c15.87 12.163 29.546 27.783 40.636 45.19v-.005z"/>
    <path d="M305.875 175.328c-5.785-36.128-18.62-72.276-38.32-103.197C241.21 30.79 200.338-.56 149.855.86-52.4 6.53 1.945 218.628 26.435 263.978c4.27 7.9 13.66 12.5 24.93 13.87 24.973 3.034 214.49 0 214.497 0 11.83-.188 27.217-9.29 33.98-18.736.606-.846 1.172-1.715 1.72-2.6 3.014-4.864 5.116-10.222 6.52-15.886 5.18-20.883.895-45.895-2.213-65.294v-.004zm-157.99 56.83c-49.54 0-89.697-40.55-89.697-90.57 0-50.02 40.16-90.568 89.697-90.568 49.54 0 89.698 40.548 89.698 90.567 0 50.022-40.158 90.572-89.698 90.572v-.01zm117.82 24.88c-12.17 0-22.034-9.958-22.034-22.245 0-12.286 9.87-22.245 22.04-22.245s22.03 9.96 22.03 22.245c0 12.288-9.86 22.246-22.03 22.246z"/>
    <ellipse cx="265.705" cy="234.793" rx="13.638" ry="13.77"/>
    <path d="M71.418 141.587c0-42.64 34.238-77.208 76.47-77.208 42.23 0 76.468 34.56 76.468 77.2s-34.237 77.21-76.47 77.21c-42.23 0-76.468-34.57-76.468-77.21zm241.106 96.11c-1.683 9.066-4.2 17.123-7.81 23.166h84.313v10.744c0 3.072 2.444 5.56 5.487 5.56 3.042 0 5.486-2.49 5.486-5.56v-33.91h-87.476z"/>
</svg>
